<?xml version="1.0" standalone="no"?>
<!DOCTYPE svg PUBLIC "-//W3C//DTD SVG 20010904//EN"
 "http://www.w3.org/TR/2001/REC-SVG-20010904/DTD/svg10.dtd">
<svg version="1.0" xmlns="http://www.w3.org/2000/svg"
 width="500.000000pt" height="500.000000pt" viewBox="0 0 500.000000 500.000000"
 preserveAspectRatio="xMidYMid meet">

<g transform="translate(0.000000,500.000000) scale(0.100000,-0.100000)"
fill="#000000" stroke="none">
<path d="M2436 3854 c68 -97 124 -179 124 -183 0 -4 -37 -16 -82 -27 l-83 -20
31 -17 c27 -14 37 -14 82 -3 40 11 53 11 64 1 19 -18 171 -67 179 -57 3 4 14
31 24 60 9 28 21 50 26 46 13 -8 11 20 -3 38 -29 36 -46 29 -64 -25 -9 -29
-20 -56 -25 -62 -7 -7 28 113 36 123 1 1 15 -3 32 -8 27 -10 32 -19 50 -82
l19 -72 64 -22 c36 -12 60 -23 54 -23 -6 -1 -36 8 -67 18 -32 11 -57 18 -57
15 0 -3 7 -16 16 -29 10 -15 39 -32 80 -45 35 -12 64 -27 64 -35 0 -7 18 -35
40 -63 22 -27 40 -53 40 -56 0 -3 -97 -6 -215 -6 -244 0 -277 -8 -336 -79
l-29 -36 -26 33 c-14 18 -48 44 -75 57 -47 24 -55 25 -265 25 -118 0 -214 4
-212 8 2 5 44 47 93 94 86 81 93 86 165 103 88 21 100 28 100 65 0 24 5 28 55
39 50 11 53 14 42 32 -6 10 -16 19 -20 19 -26 0 -133 -33 -139 -43 -5 -8 -8
-7 -8 4 0 11 21 20 76 33 l76 18 22 -27 23 -28 71 18 c48 11 70 21 65 29 -11
18 -215 310 -224 320 -5 6 -47 1 -108 -14 -82 -19 -101 -27 -105 -44 -2 -12
-13 -85 -22 -163 -10 -78 -20 -141 -23 -141 -4 0 -21 0 -40 -1 l-35 -1 27 -28
c34 -35 36 -54 2 -22 l-25 24 -38 -34 c-20 -19 -64 -61 -98 -93 -54 -52 -62
-56 -74 -42 -12 14 -5 24 48 78 l62 62 -32 33 -33 32 -62 -62 c-60 -59 -64
-61 -80 -45 -17 16 -12 22 77 112 l95 95 -35 35 -35 35 -150 -150 -150 -150
95 -96 95 -96 -24 -16 -23 -16 33 -13 c27 -10 28 -12 7 -8 -26 5 -28 2 -47
-62 -11 -38 -23 -80 -27 -95 -3 -16 -11 -28 -18 -28 -6 0 -56 14 -111 30 -55
16 -107 30 -115 30 -19 0 -70 -39 -51 -40 9 0 10 -4 4 -12 -16 -21 -45 -140
-36 -148 9 -8 334 -100 353 -100 6 0 15 10 20 23 8 18 9 16 4 -11 -5 -31 -4
-33 13 -23 33 17 39 31 88 205 46 167 47 170 93 212 l47 42 5 -457 5 -456 210
-6 c214 -6 238 -10 314 -48 32 -17 40 -26 32 -34 -8 -8 -50 -4 -153 12 -83 14
-209 26 -300 29 l-158 5 0 428 c0 422 0 429 -20 429 -20 0 -20 -7 -20 -410 0
-225 -2 -410 -5 -410 -2 0 -22 19 -43 42 l-39 42 -152 -138 c-144 -132 -151
-140 -151 -176 l0 -38 63 57 c34 32 103 95 152 140 l90 82 63 -68 c39 -42 62
-61 62 -50 0 15 14 17 128 17 140 0 249 -11 385 -37 83 -16 91 -16 118 -1 27
16 31 16 58 0 27 -15 35 -15 118 1 48 9 126 22 173 27 91 11 374 12 326 1 -18
-4 -50 -30 -89 -73 l-60 -68 69 -62 c38 -35 84 -77 104 -95 l35 -31 -49 -52
-49 -53 49 -43 c36 -32 58 -43 82 -44 17 0 32 4 32 9 0 5 -21 27 -46 50 l-46
40 48 51 48 52 -44 41 c-25 23 -71 66 -103 94 l-59 53 66 77 c52 61 66 83 66
109 l0 33 98 -36 c306 -112 294 -109 325 -88 l29 19 -96 34 c-53 19 -95 36
-93 39 2 2 42 -10 87 -27 46 -17 86 -27 90 -23 9 11 53 134 48 137 -4 4 -330
124 -347 128 -14 3 -65 -116 -58 -136 3 -6 41 -24 86 -40 45 -16 80 -30 78
-32 -9 -9 -177 60 -177 72 0 7 11 44 25 80 14 37 23 69 21 71 -2 3 -15 -3 -29
-12 -16 -10 -35 -42 -53 -93 l-29 -77 -3 389 c-1 214 0 391 3 394 2 3 15 -8
27 -24 13 -16 35 -42 49 -59 l27 -29 161 129 c148 120 161 133 161 163 0 17
-2 32 -5 32 -2 0 -75 -57 -161 -127 l-157 -127 -36 44 c-20 24 -46 55 -58 69
l-22 26 -1 -28 c0 -15 -7 -30 -15 -33 -13 -5 -15 -63 -15 -434 l0 -427 -162
-6 c-96 -3 -218 -14 -295 -27 -127 -21 -171 -21 -158 0 9 15 87 47 144 59 29
6 128 11 221 11 92 0 175 3 184 6 13 5 16 24 16 104 0 100 -8 122 -35 100 -11
-9 -15 -34 -15 -86 l0 -74 -166 0 c-174 0 -249 -12 -326 -51 -20 -10 -40 -19
-42 -19 -3 0 -7 147 -8 328 -3 283 -5 327 -18 327 -13 0 -15 -44 -18 -327 -1
-181 -5 -328 -8 -328 -2 0 -22 9 -42 19 -77 39 -152 51 -326 51 l-166 0 0 421
0 420 214 -3 c198 -3 217 -5 242 -24 42 -31 63 -64 77 -119 16 -65 37 -66 53
-1 14 55 36 89 78 120 25 19 44 21 242 24 l214 3 0 -304 c0 -254 2 -307 15
-317 8 -6 19 -9 25 -5 6 4 10 116 10 330 l0 324 60 48 c45 36 63 59 75 92 8
25 14 45 12 47 -1 1 -35 -24 -75 -57 l-74 -58 -25 30 c-14 16 -23 32 -21 35 3
2 13 -7 22 -21 9 -14 20 -25 25 -25 5 0 45 29 90 65 45 36 81 64 81 62 0 -3
-7 -24 -15 -47 -8 -24 -26 -78 -39 -121 l-24 -79 50 -62 c27 -35 51 -64 53
-66 2 -2 71 51 154 119 l151 122 -37 46 c-20 25 -40 50 -44 55 -4 5 -45 -21
-90 -57 -46 -36 -84 -65 -86 -63 -2 1 15 54 36 117 22 63 40 109 40 103 1 -5
-12 -50 -29 -99 -35 -104 -34 -98 -13 -87 18 11 53 112 53 157 0 17 -8 42 -17
55 -31 46 -95 120 -103 120 -5 0 -69 -49 -143 -110 l-135 -110 -16 45 c-14 42
-14 45 3 45 37 0 70 40 92 109 18 62 19 72 6 102 -8 19 -22 43 -31 54 -15 19
-16 19 -6 -9 6 -16 9 -31 6 -33 -2 -2 -9 11 -16 31 -6 19 -21 41 -34 49 -12 8
-100 40 -195 70 -171 55 -172 55 -180 34 -5 -12 -28 -81 -51 -154 -42 -129
-43 -132 -59 -110 -10 12 -54 75 -100 140 -70 99 -117 147 -145 147 -3 0 51
-79 120 -176z m-195 -9 c-9 -30 -9 -30 -10 10 -1 25 2 36 9 29 6 -6 6 -21 1
-39z m624 12 c61 -22 83 -51 50 -63 -23 -9 -135 26 -135 42 0 18 11 44 19 43
3 0 33 -10 66 -22z m-582 -36 c26 -39 26 -40 6 -46 -11 -4 -23 -4 -26 -1 -4 3
1 6 10 6 22 0 21 9 -3 40 -18 23 -25 40 -16 40 2 0 15 -18 29 -39z m-39 -53
c7 -5 5 -8 -6 -8 -13 0 -18 7 -17 28 1 21 2 22 6 7 3 -11 10 -23 17 -27z m843
20 c-3 -8 -6 -5 -6 6 -1 11 2 17 5 13 3 -3 4 -12 1 -19z m-33 -86 c-12 -15
-35 -31 -52 -37 -26 -7 -31 -13 -26 -30 4 -16 3 -17 -5 -5 -18 25 -12 40 14
40 27 0 75 40 75 61 0 7 3 9 7 6 4 -4 -2 -20 -13 -35z m-379 -82 c13 -5 14 -9
5 -9 -8 0 -24 4 -35 9 -13 5 -14 9 -5 9 8 0 24 -4 35 -9z m-468 -32 c-3 -7 -5
-2 -5 12 0 14 2 19 5 13 2 -7 2 -19 0 -25z m807 -55 c6 -20 4 -23 -16 -22 -16
1 -18 3 -6 6 15 4 15 8 2 45 -8 22 -14 43 -13 47 1 7 24 -45 33 -76z m-827 41
c-3 -3 -12 -4 -19 -1 -8 3 -5 6 6 6 11 1 17 -2 13 -5z m-137 -47 c0 -1 -53
-54 -117 -117 l-118 -115 115 118 c107 109 120 122 120 114z m-326 -391 c-15
-52 -29 -94 -32 -92 -2 3 9 48 24 100 15 53 29 95 31 93 2 -3 -8 -48 -23 -101z
m-284 -66 c58 -16 108 -30 113 -30 4 0 12 10 17 23 5 12 9 15 9 7 0 -8 -3 -21
-8 -29 -8 -12 -28 -9 -130 19 -108 30 -137 40 -113 40 4 0 54 -13 112 -30z
m244 -74 c-3 -15 -8 -25 -11 -23 -2 3 -1 17 3 31 3 15 8 25 11 23 2 -3 1 -17
-3 -31z m-20 -70 c-3 -15 -8 -25 -11 -23 -2 3 -1 17 3 31 3 15 8 25 11 23 2
-3 1 -17 -3 -31z"/>
<path d="M2796 3862 c-16 -15 -2 -32 41 -46 58 -20 83 -20 83 -2 0 15 -114 59
-124 48z"/>
<path d="M1799 3843 c-13 -3 -6 -14 30 -48 l46 -44 -99 -93 c-69 -65 -97 -98
-92 -107 6 -9 26 4 72 50 l64 63 40 -39 40 -39 -61 -62 c-38 -39 -59 -67 -54
-74 5 -8 35 15 91 71 l84 83 -37 38 c-23 24 -43 36 -53 33 -8 -4 5 14 30 39
l44 46 -44 45 c-42 43 -60 49 -101 38z"/>
<path d="M2014 3146 c-12 -32 6 -36 169 -36 122 -1 168 -4 187 -15 36 -21 60
-19 60 5 0 12 -13 26 -32 37 -47 25 -375 33 -384 9z"/>
<path d="M2613 3140 c-30 -13 -43 -25 -43 -40 0 -23 21 -26 53 -7 14 8 83 14
192 17 162 5 170 6 170 25 0 19 -7 20 -165 22 -145 3 -170 0 -207 -17z"/>
<path d="M3510 3096 c-97 -29 -180 -51 -186 -49 -22 7 -40 -51 -36 -120 4 -67
4 -68 43 -88 l40 -20 31 22 31 22 -47 24 c-25 13 -46 26 -46 28 0 4 97 -41
107 -50 2 -1 -17 -16 -42 -34 -44 -31 -45 -34 -47 -89 l-1 -57 -6 60 -6 60
-20 -30 c-17 -25 -19 -41 -15 -97 3 -36 7 -68 10 -71 3 -3 98 -15 213 -29
l207 -24 16 24 c9 13 13 27 9 30 -4 4 -46 12 -93 19 l-87 11 87 -5 86 -5 -1
74 c-2 68 -4 74 -22 71 -11 -2 -60 3 -110 10 l-90 12 59 44 59 44 -63 32 c-35
18 -59 34 -54 37 17 10 126 39 130 35 3 -2 -24 -12 -58 -22 l-62 -17 28 -15
c23 -12 36 -13 74 -3 51 13 68 23 83 53 10 17 8 18 -23 13 -33 -6 -33 -6 -5 5
23 9 28 16 23 33 -3 11 -6 42 -6 69 0 38 -3 47 -17 46 -10 0 -97 -24 -193 -53z
m-173 -143 c-2 -16 -4 -3 -4 27 0 30 2 43 4 28 2 -16 2 -40 0 -55z m73 -289
c0 -2 -11 -4 -25 -4 -14 0 -25 4 -25 9 0 4 11 6 25 3 14 -2 25 -6 25 -8z m125
-14 c40 -6 43 -7 15 -8 -19 0 -57 3 -85 8 -40 6 -43 7 -15 8 19 0 58 -3 85 -8z"/>
<path d="M2012 3018 c3 -23 6 -23 178 -28 117 -3 183 -9 198 -18 12 -7 27 -10
32 -7 21 13 8 35 -30 55 -35 18 -58 20 -210 20 l-171 0 3 -22z"/>
<path d="M2612 3024 c-36 -16 -51 -39 -34 -56 7 -7 17 -6 33 4 17 9 79 15 199
18 167 5 175 6 175 25 0 19 -7 20 -170 22 -130 1 -178 -2 -203 -13z"/>
<path d="M2023 2924 c-7 -3 -13 -14 -13 -25 0 -18 9 -19 153 -19 111 -1 163
-5 192 -16 58 -22 70 -22 73 2 2 17 -6 25 -40 40 -34 14 -76 18 -198 21 -85 1
-161 0 -167 -3z"/>
<path d="M2675 2923 c-11 -2 -39 -11 -63 -19 -35 -13 -43 -20 -40 -38 3 -24
15 -24 73 -2 29 11 81 15 193 16 142 0 152 1 152 19 0 10 -7 22 -16 25 -17 7
-267 6 -299 -1z"/>
<path d="M3610 2840 c-48 -36 -51 -40 -28 -40 17 0 37 12 57 35 29 33 36 45
28 45 -2 0 -28 -18 -57 -40z"/>
<path d="M1375 2844 c-5 -1 -35 -8 -66 -14 -45 -9 -58 -16 -68 -37 -6 -14 -10
-27 -8 -30 3 -2 24 1 48 6 75 18 76 17 89 -53 11 -59 15 -65 39 -69 24 -4 24
-4 -5 -6 -30 -1 -31 0 -42 60 -6 34 -13 63 -15 66 -6 5 -81 -7 -95 -16 -7 -4
4 -76 31 -213 23 -113 44 -209 47 -212 3 -2 27 0 54 6 l48 10 -6 47 c-7 55 1
43 12 -20 l8 -44 17 32 c22 42 13 111 -15 122 -13 5 23 15 107 31 117 22 126
25 121 44 -2 12 -10 47 -16 79 -9 46 -15 57 -28 53 -42 -12 -134 -27 -138 -23
-3 2 24 10 58 16 35 7 73 15 84 17 19 5 23 -1 34 -63 7 -37 16 -77 20 -88 6
-18 8 -17 22 9 13 25 13 37 -2 113 -10 46 -20 86 -23 89 -3 3 -62 -6 -132 -20
-70 -14 -131 -24 -135 -21 -4 3 -11 26 -15 51 -8 59 -17 82 -30 78z m98 -191
c-7 -2 -19 -2 -25 0 -7 3 -2 5 12 5 14 0 19 -2 13 -5z m-56 -205 c-3 -7 -5 -2
-5 12 0 14 2 19 5 13 2 -7 2 -19 0 -25z"/>
<path d="M2014 2796 c-12 -32 6 -36 159 -36 106 -1 164 -5 192 -15 53 -19 65
-19 65 4 0 12 -14 26 -37 37 -53 26 -370 35 -379 10z"/>
<path d="M2655 2803 c-47 -12 -85 -36 -85 -54 0 -22 22 -25 53 -7 14 8 84 15
192 18 162 5 170 6 170 25 0 19 -7 20 -155 21 -85 1 -164 0 -175 -3z"/>
<path d="M2014 2676 c-12 -32 6 -36 167 -36 126 0 166 -3 190 -16 59 -30 84
12 27 43 -47 25 -375 33 -384 9z"/>
<path d="M2613 2670 c-43 -19 -56 -46 -29 -56 8 -3 25 0 38 8 15 9 78 15 193
18 162 5 170 6 170 25 0 19 -7 20 -165 22 -145 3 -170 0 -207 -17z"/>
<path d="M2010 2551 c0 -10 7 -22 16 -25 9 -3 83 -6 165 -6 110 0 159 -4 185
-15 65 -27 77 13 14 45 -35 18 -58 20 -210 20 -160 0 -170 -1 -170 -19z"/>
<path d="M2612 2554 c-35 -15 -51 -39 -35 -55 6 -6 23 -4 46 6 27 11 75 15
186 15 82 0 156 3 165 6 9 3 16 15 16 25 0 18 -10 19 -172 18 -127 0 -182 -4
-206 -15z"/>
<path d="M1572 2249 l-142 -131 46 -54 46 -54 83 75 83 75 -25 -100 c-14 -55
-28 -99 -30 -96 -3 3 12 73 34 151 5 19 4 19 -13 3 -17 -17 -52 -132 -53 -175
-1 -24 15 -31 22 -10 2 6 3 3 1 -8 -2 -13 18 -43 54 -83 l57 -63 94 85 c52 47
99 82 104 79 6 -3 7 -1 4 4 -4 6 2 18 13 28 25 23 25 24 46 -165 12 -119 21
-161 36 -183 11 -15 24 -25 28 -22 5 3 53 -6 106 -20 53 -15 100 -23 105 -18
4 4 53 68 108 142 93 124 101 132 109 110 5 -13 27 -82 48 -152 33 -111 42
-131 66 -143 36 -19 39 -18 35 9 -2 12 -2 16 0 10 6 -17 9 -17 88 8 60 18 66
23 62 42 -3 12 -8 36 -12 54 l-7 32 63 19 c35 11 67 17 71 14 4 -4 9 -20 12
-37 l6 -30 -12 31 c-11 25 -17 29 -36 25 -26 -7 -26 -9 -17 -50 4 -21 15 -33
37 -40 17 -6 32 -11 34 -11 1 0 0 10 -3 23 -4 17 -2 19 6 7 8 -12 19 -11 80 8
39 13 71 26 71 30 0 13 -108 353 -113 358 -3 3 -37 -5 -76 -17 -51 -17 -70
-27 -66 -37 3 -8 7 -26 10 -40 4 -20 2 -18 -9 8 -8 19 -15 40 -15 45 -1 6 37
21 83 35 47 13 82 28 80 32 -13 20 -73 18 -151 -7 l-81 -25 24 -78 c13 -42 24
-78 24 -80 0 -2 -13 -8 -30 -13 -36 -13 -41 -46 -7 -51 l22 -3 -22 -7 c-20 -5
-24 1 -44 69 -12 41 -28 77 -34 79 -6 3 -30 -2 -54 -11 -24 -8 -49 -15 -55
-14 -6 1 20 11 58 24 63 20 67 24 48 34 -28 15 -60 14 -114 -5 -43 -14 -50
-14 -139 11 l-94 27 -21 -28 c-21 -26 -24 -26 -67 -15 -59 14 -55 15 -60 -16
-3 -16 -4 -9 -4 17 0 25 -6 55 -14 68 -13 20 -63 42 -97 42 -7 0 -16 8 -19 18
-4 9 -31 45 -61 79 l-55 62 -58 -47 c-43 -34 -61 -57 -69 -85 -6 -21 -10 -43
-8 -48 2 -6 33 17 69 50 l66 60 28 -29 c16 -17 24 -30 19 -30 -5 0 -15 9 -22
20 -7 11 -17 20 -22 20 -5 0 -42 -29 -81 -65 -39 -36 -73 -64 -76 -61 -2 2 10
56 27 120 l31 116 -57 65 c-32 36 -58 65 -58 65 -1 0 -65 -59 -144 -131z m488
-226 c0 -3 -9 -3 -20 0 -20 5 -20 2 -16 -71 l5 -77 -10 70 c-5 38 -7 75 -5 81
4 12 46 8 46 -3z m95 -24 c14 -6 9 -7 -15 -3 -19 4 -44 11 -55 15 -14 6 -9 7
15 3 19 -4 44 -11 55 -15z m261 -70 c25 -6 43 -14 40 -16 -2 -2 -23 1 -46 7
-41 11 -44 10 -65 -16 -12 -16 -27 -25 -36 -21 -11 4 -11 6 2 6 9 1 24 12 33
26 19 29 15 28 72 14z m-141 -30 c14 -6 9 -7 -15 -3 -19 4 -44 11 -55 15 -14
6 -9 7 15 3 19 -4 44 -11 55 -15z m268 5 c-9 -4 -9 -13 -2 -30 5 -14 9 -31 8
-37 0 -7 -6 4 -13 23 -14 37 -12 50 7 49 9 0 9 -2 0 -5z m326 -75 c1 -7 -79
-32 -85 -26 -2 2 14 9 36 16 37 11 39 13 30 37 -6 14 -10 31 -9 37 0 10 26
-47 28 -64z m-832 -21 c-2 -13 -4 -3 -4 22 0 25 2 35 4 23 2 -13 2 -33 0 -45z
m171 -6 c-9 -2 -19 -15 -21 -30 -3 -22 -4 -20 -6 10 -1 33 1 36 22 30 17 -5
18 -7 5 -10z m380 -92 c0 -8 -8 8 -18 35 -10 28 -18 57 -18 65 0 8 8 -7 18
-35 10 -27 18 -57 18 -65z m-328 79 c0 -11 -58 -99 -65 -99 -3 0 -5 12 -5 28
0 17 3 22 8 14 6 -8 15 -3 31 19 19 25 21 33 10 40 -11 7 -10 9 4 9 9 0 17 -5
17 -11z m-213 -76 c-2 -16 -4 -5 -4 22 0 28 2 40 4 28 2 -13 2 -35 0 -50z
m581 -133 c0 -8 -8 8 -18 35 -10 28 -18 57 -18 65 0 8 8 -7 18 -35 10 -27 18
-57 18 -65z m-571 48 c-2 -13 -4 -5 -4 17 -1 22 1 32 4 23 2 -10 2 -28 0 -40z"/>
<path d="M3127 2205 l-47 -53 99 -89 c55 -48 100 -93 100 -99 1 -6 -8 -19 -20
-30 -12 -10 -30 -32 -41 -47 l-20 -29 33 -34 c18 -19 36 -34 40 -34 4 0 56 54
115 120 59 66 111 117 117 113 6 -3 8 -2 5 3 -4 5 9 26 27 48 l32 39 -40 36
-40 36 -47 -52 -48 -53 -99 90 c-54 49 -102 89 -108 89 -5 0 -31 -24 -58 -54z"/>
<path d="M3394 2163 c-30 -33 -32 -39 -19 -52 13 -13 18 -12 41 10 14 13 35
36 46 52 l19 27 -26 0 c-19 0 -38 -12 -61 -37z"/>
</g>
</svg>
