<?xml version="1.0" standalone="no"?>
<!DOCTYPE svg PUBLIC "-//W3C//DTD SVG 20010904//EN"
 "http://www.w3.org/TR/2001/REC-SVG-20010904/DTD/svg10.dtd">
<svg version="1.0" xmlns="http://www.w3.org/2000/svg"
 width="300.000000pt" height="300.000000pt" viewBox="0 0 300.000000 300.000000"
 preserveAspectRatio="xMidYMid meet">
<metadata>
Created by potrace 1.10, written by Peter Selinger 2001-2011
</metadata>
<g transform="translate(0.000000,300.000000) scale(0.100000,-0.100000)"
fill="#000000" stroke="none">
<path d="M1309 2620 c-467 -84 -824 -440 -903 -899 -41 -240 1 -477 122 -698
77 -139 142 -177 196 -112 14 17 26 36 26 43 0 7 -21 55 -46 106 -66 136 -95
243 -101 375 -6 129 6 222 45 337 77 230 271 432 496 519 80 31 214 62 228 53
5 -3 -3 -20 -17 -38 -65 -85 -439 -1114 -506 -1391 -46 -193 -9 -291 153 -405
129 -91 300 -141 478 -142 417 0 826 247 1009 610 71 141 121 357 121 523 0
517 -355 973 -855 1101 -89 22 -361 34 -446 18z m443 -58 c463 -124 791 -526
815 -1002 10 -203 -25 -378 -112 -555 -137 -282 -382 -474 -710 -560 -309 -81
-631 -13 -803 169 -62 65 -72 89 -72 164 0 136 161 627 422 1285 79 200 94
231 122 248 22 14 42 19 70 15 80 -9 74 4 306 -743 116 -376 210 -690 208
-699 -5 -26 -53 -57 -76 -50 -12 4 -42 36 -68 72 -134 188 -286 289 -454 301
-83 6 -100 14 -100 48 0 30 16 41 68 48 97 12 239 -26 333 -89 58 -39 63 -41
50 -16 -8 14 -244 617 -265 676 -3 10 -8 17 -10 15 -9 -9 -226 -632 -274 -784
-68 -218 -88 -303 -75 -324 15 -24 111 -80 168 -97 95 -28 186 -34 289 -19
460 69 748 397 749 850 0 209 -56 376 -178 535 -114 148 -279 259 -462 312
-67 20 -100 23 -243 23 -153 -1 -171 -3 -250 -29 -302 -99 -512 -314 -606
-622 -25 -81 -28 -103 -28 -249 0 -191 17 -264 94 -421 55 -111 59 -129 31
-144 -30 -16 -47 -3 -97 72 -57 85 -109 205 -137 318 -32 130 -30 359 5 491
105 391 410 682 808 770 116 26 368 21 482 -9z m-78 -238 c235 -61 447 -239
546 -458 57 -127 65 -168 65 -351 0 -151 -3 -179 -23 -245 -32 -101 -85 -203
-143 -276 -58 -73 -76 -83 -89 -49 -5 13 -100 315 -210 672 -121 389 -211 663
-226 686 -24 37 -24 37 -3 37 12 0 49 -7 83 -16z m-95 -799 c72 -186 88 -235
78 -235 -1 0 -28 9 -58 20 -76 26 -180 42 -229 34 -32 -5 -40 -4 -40 9 0 14
68 213 120 351 18 48 24 56 35 45 7 -8 49 -108 94 -224z m-218 -355 c154 0
325 -99 435 -253 21 -29 48 -64 62 -79 13 -14 21 -31 18 -37 -4 -5 -41 -23
-84 -39 -206 -80 -414 -82 -562 -7 -71 36 -74 43 -55 117 22 86 85 289 97 311
8 16 11 16 31 2 12 -8 38 -15 58 -15z"/>
</g>
</svg>
